<svg width="151" height="151" viewBox="0 0 151 151" fill="none" xmlns="http://www.w3.org/2000/svg">
<path fill-rule="evenodd" clip-rule="evenodd" d="M66.911 145.679C63.661 142.999 48.001 127.099 33.551 107.619C24.901 95.9493 17.261 82.4093 11.491 71.2193C-2.07901 44.9493 -7.92901 12.8893 18.561 2.2593C38.7161 -5.8286 60.8742 10.6811 70.3194 19.04L57 63L83.201 83.5L70.3194 148.322C69.2777 147.61 68.1668 146.715 66.911 145.679ZM79.8313 148.322C80.8791 147.586 81.9828 146.67 83.201 145.649C86.341 143.019 102.121 127.019 116.521 107.489L117.001 106.949C125.461 95.3793 132.931 82.0893 138.601 71.0693C152.141 44.7093 157.961 12.6893 131.461 2.1393C104.961 -8.4107 75.001 23.4893 75.001 23.4893L64.5 60L91.5 76.5L79.8313 148.322Z" fill="#46ae8b"/>
</svg>
