<svg xmlns="http://www.w3.org/2000/svg" viewBox="0 0 106.66 107.95"><defs><style>.cls-1{fill:#74ffa5;}.cls-2{fill:#c3f2d7;}.cls-3{fill:#31a57e;}</style></defs><title>logo_tender_hearts</title><g id="Layer_2" data-name="Layer 2"><g id="Layer_1-2" data-name="Layer 1"><g id="logo_horitzontal" data-name="logo horitzontal"><g id="logo_icon" data-name="logo icon"><path id="Fill-1" class="cls-1" d="M12.39,73.38C-.52,58.83,12.84,41.1,29.17,29.19A189.28,189.28,0,0,1,53.33,13.94l-.44-.22c-14.76-7.49-29.19-12.4-32-13s-4.73-1-6.35-.25S12.09,3.08,11,5.65,5.11,22.78,2.29,39.07A187.11,187.11,0,0,0,0,68C-.2,88.2,6,109.5,25.45,107.86S53.33,77.63,53.33,77.63s-28,10.31-40.94-4.25"/><path id="Fill-4" class="cls-2" d="M106.66,68a187.11,187.11,0,0,0-2.29-28.94c-2.82-16.29-7.5-30.79-8.66-33.42s-2-4.39-3.59-5.23S88.51.05,85.77.67s-17.24,5.56-32,13.05l-.44.22A188.58,188.58,0,0,1,77.49,29.19C93.82,41.1,107.18,58.83,94.27,73.38s-40.94,4.25-40.94,4.25,8.48,28.59,27.89,30.23S106.86,88.2,106.66,68"/><path id="Fill-7" class="cls-3" d="M94.27,73.38c12.91-14.55-.45-32.28-16.78-44.19A188.58,188.58,0,0,0,53.33,13.94,189.28,189.28,0,0,0,29.17,29.19C12.84,41.1-.52,58.83,12.39,73.38s40.94,4.25,40.94,4.25,28,10.31,40.94-4.25"/></g></g></g></g></svg>