<?xml version="1.0" encoding="UTF-8"?>
<svg width="447px" height="110px" viewBox="0 0 447 110" version="1.1" xmlns="http://www.w3.org/2000/svg" xmlns:xlink="http://www.w3.org/1999/xlink">
    <title>logo_horitzontal</title>
    <g id="logo_horitzontal" stroke="none" stroke-width="1" fill="none" fill-rule="evenodd">
        <g id="logo_icon">
            <path d="M13.5411274,74.52775 C0.625774737,59.9739479 13.9891747,42.2461875 30.3173747,30.3369687 C37.1465116,25.3554583 45.7724274,19.5500937 54.4775116,15.0882188 C54.3312221,15.0131667 54.1843589,14.93525 54.0374958,14.8607708 C39.2794695,7.37676042 24.8427063,2.46342708 22.0362432,1.81946875 C19.2957537,1.19097917 17.3085116,0.80540625 15.6918695,1.56566667 C14.1148116,2.4055625 13.2365011,4.22686458 12.1023274,6.79582292 C10.9411905,9.428375 6.25361684,23.9225937 3.43797474,40.2106146 C1.74790105,49.9834271 1.23846947,60.5697812 1.15184316,69.1566562 C0.949906316,89.3479583 7.18986947,110.644417 26.5930168,109.007594 C45.9961642,107.369625 54.4775116,78.7759271 54.4775116,78.7759271 C54.4775116,78.7759271 26.4559063,89.0815521 13.5411274,74.52775" id="Fill-1" fill="#74FFA5"></path>
            <path d="M107.802951,69.1566563 C107.717472,60.5697813 107.206893,49.9834271 105.517966,40.2106146 C102.701751,23.9225938 98.0147505,9.428375 96.8524663,6.79582292 C95.71944,4.22686458 94.8399821,2.4055625 93.2634979,1.56566667 C91.6468558,0.80540625 89.6596137,1.19097917 86.9196979,1.81946875 C84.1120874,2.46342708 69.6753242,7.37676042 54.9178716,14.8607708 C54.7715821,14.93525 54.6247189,15.0131667 54.4778558,15.0882188 C63.18294,19.5500938 71.8088558,25.3554583 78.6379926,30.3369688 C94.9661926,42.2461875 108.329593,59.9739479 95.41424,74.52775 C82.5000347,89.0815521 54.4778558,78.7759271 54.4778558,78.7759271 C54.4778558,78.7759271 62.9586295,107.369625 82.3623505,109.007594 C101.766072,110.644417 108.006035,89.3479583 107.802951,69.1566563" id="Fill-4" fill="#C3F2D7"></path>
            <path d="M95.4144121,74.52775 C108.329765,59.9739479 94.9663647,42.2461875 78.6381647,30.3369688 C71.8090279,25.3554583 63.1825384,19.5500938 54.4780279,15.0882188 C45.77237,19.5500938 37.1470279,25.3554583 30.3173174,30.3369688 C13.9891174,42.2461875 0.625717368,59.9739479 13.54107,74.52775 C26.4558489,89.0815521 54.4780279,78.7759271 54.4780279,78.7759271 C54.4780279,78.7759271 82.4996332,89.0815521 95.4144121,74.52775" id="Fill-7" fill="#31A57E"></path>
        </g>
        <g id="Group" transform="translate(128.000000, 10.000000)" fill="#27303B" fill-rule="nonzero">
            <g id="tender">
                <path d="M27.141,80.66 C29.6843333,80.66 32.0641667,80.006 34.2805,78.698 C36.4968333,77.39 37.605,75.7186667 37.605,73.684 C37.605,72.0126667 37.1871667,70.7046667 36.3515,69.76 C35.5158333,68.8153333 34.5893333,68.343 33.572,68.343 C32.6273333,68.343 31.7916667,68.5065 31.065,68.8335 C30.3383333,69.1605 29.539,69.324 28.667,69.324 C27.8676667,69.324 27.1228333,69.1786667 26.4325,68.888 C25.7421667,68.5973333 25.1971667,68.125 24.7975,67.471 C24.3978333,66.817 24.198,65.9813333 24.198,64.964 L24.198,64.964 L24.198,35.425 L31.937,35.425 C33.5784118,35.425 34.9623472,34.9261396 36.0888062,33.9284187 L36.297,33.7355 C37.4596667,32.6091667 38.041,31.2103333 38.041,29.539 C38.041,27.795 37.4596667,26.3416667 36.297,25.179 C35.1343333,24.0163333 33.681,23.435 31.937,23.435 L31.937,23.435 L24.198,23.435 L24.198,16.459 C24.198,14.6808039 23.666955,13.1761765 22.6048651,11.9451176 L22.3995,11.7175 C21.2005,10.4458333 19.6563333,9.81 17.767,9.81 C15.8776667,9.81 14.2971667,10.4458333 13.0255,11.7175 C11.7538333,12.9891667 11.118,14.5696667 11.118,16.459 L11.118,16.459 L11.118,23.435 L6.104,23.435 C4.46258824,23.435 3.07865283,23.9338604 1.95219377,24.9315813 L1.744,25.1245 C0.581333333,26.2508333 -1.13686838e-13,27.6496667 -1.13686838e-13,29.321 C-1.13686838e-13,31.065 0.581333333,32.5183333 1.744,33.681 C2.90666667,34.8436667 4.36,35.425 6.104,35.425 L6.104,35.425 L11.118,35.425 L11.118,65.509 C11.118,68.9078182 11.6145806,71.6114236 12.6077417,73.6198161 L12.753,73.902 C13.843,75.9366667 15.2055,77.4445 16.8405,78.4255 C18.4755,79.4065 20.2195,80.0241667 22.0725,80.2785 C23.9255,80.5328333 25.615,80.66 27.141,80.66 Z M70.688518,81.75 C74.3218513,81.75 77.8461847,81.1505 81.261518,79.9515 C84.6768513,78.7525 87.3291847,77.3536667 89.218518,75.755 C91.2531847,74.1563333 92.270518,72.376 92.270518,70.414 C92.270518,68.9606667 91.7436847,67.689 90.690018,66.599 C89.6363513,65.509 88.3101847,64.964 86.711518,64.964 C85.5488513,64.964 84.313518,65.291 83.005518,65.945 C82.2061847,66.381 81.316018,66.9078333 80.335018,67.5255 C79.354018,68.1431667 78.0641847,68.67 76.465518,69.106 C74.8668513,69.542 72.7231847,69.76 70.034518,69.76 C67.1278513,69.76 64.3846847,69.0515 61.805018,67.6345 C59.2253513,66.2175 57.118018,64.1465 55.483018,61.4215 C54.5588876,59.8812826 53.8959244,58.1495425 53.4941286,56.2262798 L53.454,56.026 L89.436518,56.026 C91.071518,56.026 92.5149164,55.5469961 93.7667133,54.5889883 L94.014518,54.391 C95.322518,53.301 96.0128513,51.884 96.085518,50.14 C96.085518,46.216 95.3406847,42.51 93.851018,39.022 C92.3613513,35.534 90.3448513,32.4638333 87.801518,29.8115 C85.2581847,27.1591667 82.3333513,25.07 79.027018,23.544 C75.7206847,22.018 72.214518,21.255 68.508518,21.255 C63.712518,21.255 59.1708513,22.4903333 54.883518,24.961 C50.5961847,27.4316667 47.1263513,30.9741667 44.474018,35.5885 C41.8216847,40.2028333 40.495518,45.78 40.495518,52.32 C40.495518,57.9153333 41.7126847,62.9293333 44.147018,67.362 C46.5813513,71.7946667 50.0693513,75.3008333 54.611018,77.8805 C59.1526847,80.4601667 64.5118513,81.75 70.688518,81.75 Z M82.133,45.126 L53.568,45.126 L53.6559223,44.6997562 C53.7842104,44.1067603 53.9322351,43.5442665 54.0999964,43.0122747 L54.229518,42.619 C55.0288513,40.2936667 56.1188513,38.4406667 57.499518,37.06 C58.8801847,35.6793333 60.5151847,34.6983333 62.404518,34.117 C64.2938513,33.5356667 66.328518,33.245 68.508518,33.245 C70.7611847,33.245 72.8866847,33.7355 74.885018,34.7165 C76.8833513,35.6975 78.5546847,37.0236667 79.899018,38.695 C81.2433513,40.3663333 81.9881847,42.2556667 82.133518,44.363 L82.133518,44.363 L82.133,45.126 Z M145.519036,80.66 C147.408369,80.66 148.970703,80.0241667 150.206036,78.7525 C151.441369,77.4808333 152.059036,75.9003333 152.059036,74.011 L152.059036,74.011 L152.059036,46.107 C152.059036,41.529 151.532203,37.3688333 150.478536,33.6265 C149.424869,29.8841667 147.499203,26.8866667 144.701536,24.634 C141.903869,22.3813333 137.816369,21.255 132.439036,21.255 C129.968369,21.255 127.679369,21.6365 125.572036,22.3995 C123.464703,23.1625 121.575369,24.1616667 119.904036,25.397 C118.232703,26.6323333 116.779369,27.9585 115.544036,29.3755 C115.207127,29.7619545 114.891838,30.1416529 114.598168,30.514595 L114.345,30.842 L114.345036,28.994 C114.345036,27.2158039 113.797899,25.7111765 112.703624,24.4801176 L112.492036,24.2525 C111.256703,22.9808333 109.694369,22.345 107.805036,22.345 C105.915703,22.345 104.353369,22.9808333 103.118036,24.2525 C101.882703,25.5241667 101.265036,27.1046667 101.265036,28.994 L101.265036,28.994 L101.265036,74.011 C101.265036,75.9003333 101.882703,77.4808333 103.118036,78.7525 C104.353369,80.0241667 105.915703,80.66 107.805036,80.66 C109.694369,80.66 111.256703,80.0241667 112.492036,78.7525 C113.727369,77.4808333 114.345036,75.9003333 114.345036,74.011 L114.345036,74.011 L114.345036,46.107 C114.345036,43.709 114.871869,41.5471667 115.925536,39.6215 C116.979203,37.6958333 118.505203,36.1516667 120.503536,34.989 C122.501869,33.8263333 124.954369,33.245 127.861036,33.245 C130.840369,33.245 133.129369,33.8263333 134.728036,34.989 C136.326703,36.1516667 137.434869,37.6958333 138.052536,39.6215 C138.670203,41.5471667 138.979036,43.709 138.979036,46.107 L138.979036,46.107 L138.979036,74.011 C138.979036,75.9003333 139.596703,77.4808333 140.832036,78.7525 C142.067369,80.0241667 143.629703,80.66 145.519036,80.66 Z M184.052554,81.75 C186.813887,81.75 189.375387,81.2958333 191.737054,80.3875 C194.098721,79.4791667 196.151554,78.371 197.895554,77.063 C199.058221,76.191 200.059406,75.3109259 200.89911,74.4227778 L201.167,74.132 L201.171966,74.3412059 C201.236083,75.9762059 201.781083,77.3707647 202.806966,78.5248824 L203.018554,78.7525 C204.253887,80.0241667 205.816221,80.66 207.705554,80.66 C209.594887,80.66 211.157221,80.0241667 212.392554,78.7525 C213.627887,77.4808333 214.245554,75.9003333 214.245554,74.011 L214.245554,74.011 L214.245554,6.649 C214.245554,4.687 213.627887,3.08833333 212.392554,1.853 C211.157221,0.617666667 209.594887,0 207.705554,0 C205.816221,0 204.253887,0.635833333 203.018554,1.9075 C201.783221,3.17916667 201.165554,4.75966667 201.165554,6.649 L201.165554,6.649 L201.165,28.046 L200.936432,27.8330944 C200.475221,27.4141488 199.978418,26.9966862 199.446023,26.5807066 L199.040054,26.269 C197.114387,24.8156667 194.843554,23.6166667 192.227554,22.672 C189.611554,21.7273333 186.741221,21.255 183.616554,21.255 C178.747887,21.255 174.315221,22.5448333 170.318554,25.1245 C166.321887,27.7041667 163.142721,31.2648333 160.781054,35.8065 C158.419387,40.3481667 157.238554,45.5983333 157.238554,51.557 C157.238554,57.443 158.419387,62.6568333 160.781054,67.1985 C163.142721,71.7401667 166.358221,75.3008333 170.427554,77.8805 C174.496887,80.4601667 179.038554,81.75 184.052554,81.75 Z M185.687554,69.76 C182.562887,69.76 179.801554,68.9606667 177.403554,67.362 C175.005554,65.7633333 173.134387,63.5833333 171.790054,60.822 C170.445721,58.0606667 169.773554,54.9723333 169.773554,51.557 C169.773554,48.069 170.445721,44.9443333 171.790054,42.183 C173.134387,39.4216667 175.005554,37.2416667 177.403554,35.643 C179.801554,34.0443333 182.562887,33.245 185.687554,33.245 C188.884887,33.245 191.682554,34.0443333 194.080554,35.643 C196.478554,37.2416667 198.349721,39.4216667 199.694054,42.183 C201.038387,44.9443333 201.710554,48.069 201.710554,51.557 C201.710554,54.9723333 201.038387,58.0606667 199.694054,60.822 C198.349721,63.5833333 196.478554,65.7633333 194.080554,67.362 C191.682554,68.9606667 188.884887,69.76 185.687554,69.76 Z M249.618072,81.75 C253.251405,81.75 256.775739,81.1505 260.191072,79.9515 C263.606405,78.7525 266.258739,77.3536667 268.148072,75.755 C270.182739,74.1563333 271.200072,72.376 271.200072,70.414 C271.200072,68.9606667 270.673239,67.689 269.619572,66.599 C268.565905,65.509 267.239739,64.964 265.641072,64.964 C264.478405,64.964 263.243072,65.291 261.935072,65.945 C261.135739,66.381 260.245572,66.9078333 259.264572,67.5255 C258.283572,68.1431667 256.993739,68.67 255.395072,69.106 C253.796405,69.542 251.652739,69.76 248.964072,69.76 C246.057405,69.76 243.314239,69.0515 240.734572,67.6345 C238.154905,66.2175 236.047572,64.1465 234.412572,61.4215 C233.488442,59.8812826 232.825478,58.1495425 232.423683,56.2262798 L232.383,56.026 L268.366072,56.026 C270.001072,56.026 271.44447,55.5469961 272.696267,54.5889883 L272.944072,54.391 C274.252072,53.301 274.942405,51.884 275.015072,50.14 C275.015072,46.216 274.270239,42.51 272.780572,39.022 C271.290905,35.534 269.274405,32.4638333 266.731072,29.8115 C264.187739,27.1591667 261.262905,25.07 257.956572,23.544 C254.650239,22.018 251.144072,21.255 247.438072,21.255 C242.642072,21.255 238.100405,22.4903333 233.813072,24.961 C229.525739,27.4316667 226.055905,30.9741667 223.403572,35.5885 C220.751239,40.2028333 219.425072,45.78 219.425072,52.32 C219.425072,57.9153333 220.642239,62.9293333 223.076572,67.362 C225.510905,71.7946667 228.998905,75.3008333 233.540572,77.8805 C238.082239,80.4601667 243.441405,81.75 249.618072,81.75 Z M261.063072,45.126 L232.497,45.126 L232.585476,44.6997562 C232.713764,44.1067603 232.861789,43.5442665 233.02955,43.0122747 L233.159072,42.619 C233.958405,40.2936667 235.048405,38.4406667 236.429072,37.06 C237.809739,35.6793333 239.444739,34.6983333 241.334072,34.117 C243.223405,33.5356667 245.258072,33.245 247.438072,33.245 C249.690739,33.245 251.816239,33.7355 253.814572,34.7165 C255.812905,35.6975 257.484239,37.0236667 258.828572,38.695 C260.172905,40.3663333 260.917739,42.2556667 261.063072,44.363 L261.063072,44.363 L261.063072,45.126 Z M286.73459,80.66 C288.623923,80.66 290.186257,80.0241667 291.42159,78.7525 C292.656923,77.4808333 293.27459,75.9003333 293.27459,74.011 L293.27459,74.011 L293.27459,48.178 C293.27459,45.562 293.619757,43.2911667 294.31009,41.3655 C295.000423,39.4398333 295.908757,37.823 297.03509,36.515 C298.161423,35.207 299.396757,34.2441667 300.74109,33.6265 C302.085423,33.0088333 303.41159,32.7 304.71959,32.7 C306.172923,32.7 307.462757,32.9543333 308.58909,33.463 C309.715423,33.9716667 310.968923,34.226 312.34959,34.226 C313.802923,34.226 315.147257,33.6991667 316.38259,32.6455 C317.617923,31.5918333 318.23559,29.866 318.23559,27.468 C318.23559,25.7966667 317.490757,24.3433333 316.00109,23.108 C314.511423,21.8726667 312.67659,21.255 310.49659,21.255 C308.679923,21.255 306.863257,21.473 305.04659,21.909 C303.229923,22.345 301.522257,23.0171667 299.92359,23.9255 C298.324923,24.8338333 296.889757,25.9601667 295.61809,27.3045 C294.808848,28.1599848 294.095243,29.0963939 293.477276,30.1137273 L293.274,30.46 L293.27459,28.994 C293.27459,27.2158039 292.727453,25.7111765 291.633178,24.4801176 L291.42159,24.2525 C290.186257,22.9808333 288.623923,22.345 286.73459,22.345 C284.845257,22.345 283.282923,22.9808333 282.04759,24.2525 C280.812257,25.5241667 280.19459,27.1046667 280.19459,28.994 L280.19459,28.994 L280.19459,74.011 C280.19459,75.9003333 280.812257,77.4808333 282.04759,78.7525 C283.282923,80.0241667 284.845257,80.66 286.73459,80.66 Z"></path>
            </g>
        </g>
    </g>
</svg>